<svg width="50" height="50" viewBox="0 0 50 50" fill="none" xmlns="http://www.w3.org/2000/svg">
<path d="M50 25C50 38.8071 38.8071 50 25 50C11.1929 50 0 38.8071 0 25C0 11.1929 11.1929 0 25 0C38.8071 0 50 11.1929 50 25Z" fill="#FFC600"/>
<path d="M24.5 30C29.8848 30 34.25 25.5228 34.25 20C34.25 14.4772 29.8848 10 24.5 10C19.1152 10 14.75 14.4772 14.75 20C14.75 25.5228 19.1152 30 24.5 30Z" stroke="white" stroke-width="2" stroke-miterlimit="10"/>
<path d="M9.72095 38.7485C11.2193 36.0885 13.3739 33.8797 15.9681 32.344C18.5623 30.8084 21.5049 30 24.5001 30C27.4954 30 30.438 30.8085 33.0321 32.3442C35.6263 33.8799 37.7808 36.0888 39.2792 38.7489" stroke="white" stroke-width="2" stroke-linecap="round" stroke-linejoin="round"/>
</svg>
