<svg width="340" height="35" viewBox="0 0 340 35" fill="none" xmlns="http://www.w3.org/2000/svg">
<path d="M5.488 12.224C3.98533 12.224 2.814 11.818 1.974 11.006C1.134 10.194 0.714 9.05533 0.714 7.59V2.2H4.018V7.492C4.018 8.23867 4.15333 8.77067 4.424 9.088C4.69467 9.396 5.05867 9.55 5.516 9.55C5.98267 9.55 6.34667 9.396 6.608 9.088C6.87867 8.77067 7.014 8.23867 7.014 7.492V2.2H10.262V7.59C10.262 9.05533 9.842 10.194 9.002 11.006C8.162 11.818 6.99067 12.224 5.488 12.224ZM16.9985 4.202C17.5865 4.202 18.1185 4.32333 18.5945 4.566C19.0705 4.79933 19.4438 5.168 19.7145 5.672C19.9945 6.176 20.1345 6.82933 20.1345 7.632V12H16.9705V8.178C16.9705 7.702 16.8865 7.366 16.7185 7.17C16.5505 6.96467 16.3218 6.862 16.0325 6.862C15.8178 6.862 15.6172 6.91333 15.4305 7.016C15.2532 7.10933 15.1085 7.268 14.9965 7.492C14.8938 7.716 14.8425 8.01933 14.8425 8.402V12H11.6785V4.342H14.6885V6.582L14.0865 5.938C14.3852 5.35933 14.7865 4.92533 15.2905 4.636C15.8038 4.34667 16.3732 4.202 16.9985 4.202ZM21.5086 12V4.342H24.6726V12H21.5086ZM23.0906 3.726C22.5119 3.726 22.0499 3.572 21.7046 3.264C21.3593 2.956 21.1866 2.57333 21.1866 2.116C21.1866 1.65867 21.3593 1.276 21.7046 0.967999C22.0499 0.659999 22.5119 0.505999 23.0906 0.505999C23.6693 0.505999 24.1313 0.650666 24.4766 0.94C24.8219 1.22933 24.9946 1.60267 24.9946 2.06C24.9946 2.54533 24.8219 2.94667 24.4766 3.264C24.1313 3.572 23.6693 3.726 23.0906 3.726ZM28.245 12L25.165 4.342H28.413L30.751 10.558H29.113L31.605 4.342H34.601L31.521 12H28.245ZM39.1077 12.14C38.1744 12.14 37.3577 11.9673 36.6577 11.622C35.967 11.2767 35.4304 10.8053 35.0477 10.208C34.665 9.60133 34.4737 8.92 34.4737 8.164C34.4737 7.38933 34.6604 6.70333 35.0337 6.106C35.4164 5.50867 35.9344 5.042 36.5877 4.706C37.2504 4.37 37.9924 4.202 38.8137 4.202C39.5697 4.202 40.265 4.35133 40.8997 4.65C41.5437 4.94867 42.057 5.392 42.4397 5.98C42.8317 6.568 43.0277 7.296 43.0277 8.164C43.0277 8.276 43.023 8.402 43.0137 8.542C43.0044 8.67267 42.995 8.794 42.9857 8.906H37.0917V7.38H41.3057L40.1157 7.786C40.1157 7.48733 40.0597 7.23533 39.9477 7.03C39.845 6.81533 39.7004 6.652 39.5137 6.54C39.327 6.41867 39.103 6.358 38.8417 6.358C38.5804 6.358 38.3517 6.41867 38.1557 6.54C37.969 6.652 37.8244 6.81533 37.7217 7.03C37.619 7.23533 37.5677 7.48733 37.5677 7.786V8.262C37.5677 8.58867 37.633 8.86867 37.7637 9.102C37.8944 9.33533 38.081 9.51267 38.3237 9.634C38.5664 9.746 38.8604 9.802 39.2057 9.802C39.5604 9.802 39.8497 9.75533 40.0737 9.662C40.307 9.56867 40.5497 9.42867 40.8017 9.242L42.4537 10.908C42.0804 11.3093 41.6184 11.6173 41.0677 11.832C40.5264 12.0373 39.873 12.14 39.1077 12.14ZM44.0262 12V4.342H47.0362V6.652L46.5462 5.994C46.7795 5.39667 47.1528 4.94867 47.6662 4.65C48.1795 4.35133 48.7955 4.202 49.5142 4.202V7.002C49.3742 6.98333 49.2482 6.96933 49.1362 6.96C49.0335 6.95067 48.9262 6.946 48.8142 6.946C48.3382 6.946 47.9462 7.072 47.6382 7.324C47.3395 7.56667 47.1902 7.99133 47.1902 8.598V12H44.0262ZM53.4069 12.14C52.7536 12.14 52.1096 12.07 51.4749 11.93C50.8403 11.79 50.3269 11.608 49.9349 11.384L50.8029 9.298C51.1669 9.51267 51.5869 9.68067 52.0629 9.802C52.5483 9.92333 53.0196 9.984 53.4769 9.984C53.8596 9.984 54.1163 9.95133 54.2469 9.886C54.3869 9.82067 54.4569 9.732 54.4569 9.62C54.4569 9.508 54.3776 9.42867 54.2189 9.382C54.0603 9.326 53.8503 9.284 53.5889 9.256C53.3276 9.228 53.0383 9.19533 52.7209 9.158C52.4129 9.11133 52.1003 9.046 51.7829 8.962C51.4656 8.878 51.1763 8.752 50.9149 8.584C50.6536 8.416 50.4436 8.192 50.2849 7.912C50.1263 7.62267 50.0469 7.25867 50.0469 6.82C50.0469 6.33467 50.1916 5.896 50.4809 5.504C50.7796 5.112 51.2183 4.79933 51.7969 4.566C52.3849 4.32333 53.1083 4.202 53.9669 4.202C54.5269 4.202 55.0869 4.25333 55.6469 4.356C56.2069 4.45867 56.6876 4.61733 57.0889 4.832L56.2209 6.918C55.8289 6.70333 55.4416 6.55867 55.0589 6.484C54.6856 6.4 54.3356 6.358 54.0089 6.358C53.6076 6.358 53.3323 6.39533 53.1829 6.47C53.0429 6.54467 52.9729 6.62867 52.9729 6.722C52.9729 6.834 53.0523 6.918 53.2109 6.974C53.3696 7.03 53.5796 7.072 53.8409 7.1C54.1023 7.128 54.3869 7.16533 54.6949 7.212C55.0123 7.24933 55.3249 7.31467 55.6329 7.408C55.9503 7.492 56.2396 7.618 56.5009 7.786C56.7623 7.954 56.9723 8.18267 57.1309 8.472C57.2896 8.752 57.3689 9.11133 57.3689 9.55C57.3689 10.0073 57.2243 10.4367 56.9349 10.838C56.6456 11.23 56.2069 11.5473 55.6189 11.79C55.0309 12.0233 54.2936 12.14 53.4069 12.14ZM58.327 12V4.342H61.491V12H58.327ZM59.909 3.726C59.3303 3.726 58.8683 3.572 58.523 3.264C58.1776 2.956 58.005 2.57333 58.005 2.116C58.005 1.65867 58.1776 1.276 58.523 0.967999C58.8683 0.659999 59.3303 0.505999 59.909 0.505999C60.4876 0.505999 60.9496 0.650666 61.295 0.94C61.6403 1.22933 61.813 1.60267 61.813 2.06C61.813 2.54533 61.6403 2.94667 61.295 3.264C60.9496 3.572 60.4876 3.726 59.909 3.726ZM66.2534 12.14C65.5907 12.14 64.9747 11.9813 64.4054 11.664C63.8454 11.3373 63.3974 10.88 63.0614 10.292C62.7254 9.69467 62.5574 8.98533 62.5574 8.164C62.5574 7.34267 62.7254 6.638 63.0614 6.05C63.3974 5.45267 63.8454 4.99533 64.4054 4.678C64.9747 4.36067 65.5907 4.202 66.2534 4.202C66.9254 4.202 67.476 4.34667 67.9054 4.636C68.3347 4.916 68.652 5.35 68.8574 5.938C69.0627 6.51667 69.1654 7.25867 69.1654 8.164C69.1654 9.07867 69.0674 9.83 68.8714 10.418C68.6847 11.006 68.3767 11.44 67.9474 11.72C67.5274 12 66.9627 12.14 66.2534 12.14ZM67.0094 9.676C67.2427 9.676 67.4527 9.62 67.6394 9.508C67.826 9.396 67.9754 9.228 68.0874 9.004C68.1994 8.77067 68.2554 8.49067 68.2554 8.164C68.2554 7.828 68.1994 7.55267 68.0874 7.338C67.9754 7.114 67.826 6.946 67.6394 6.834C67.4527 6.722 67.2427 6.666 67.0094 6.666C66.776 6.666 66.566 6.722 66.3794 6.834C66.1927 6.946 66.0434 7.114 65.9314 7.338C65.8194 7.55267 65.7634 7.828 65.7634 8.164C65.7634 8.49067 65.8194 8.77067 65.9314 9.004C66.0434 9.228 66.1927 9.396 66.3794 9.508C66.566 9.62 66.776 9.676 67.0094 9.676ZM68.3534 12V10.964L68.3394 8.164L68.1994 5.364V1.612H71.3634V12H68.3534ZM77.3985 12V10.642L77.1745 10.278V7.702C77.1745 7.32867 77.0578 7.044 76.8245 6.848C76.6005 6.652 76.2318 6.554 75.7185 6.554C75.3731 6.554 75.0231 6.61 74.6685 6.722C74.3138 6.82467 74.0105 6.96933 73.7585 7.156L72.7505 5.07C73.1985 4.79 73.7351 4.57533 74.3605 4.426C74.9858 4.27667 75.5971 4.202 76.1945 4.202C77.5105 4.202 78.5278 4.496 79.2465 5.084C79.9745 5.672 80.3385 6.60533 80.3385 7.884V12H77.3985ZM75.2285 12.14C74.6031 12.14 74.0805 12.0327 73.6605 11.818C73.2405 11.6033 72.9231 11.3187 72.7085 10.964C72.4938 10.6 72.3865 10.1987 72.3865 9.76C72.3865 9.26533 72.5125 8.84533 72.7645 8.5C73.0165 8.15467 73.3991 7.89333 73.9125 7.716C74.4351 7.53867 75.0931 7.45 75.8865 7.45H77.4825V8.976H76.3905C76.0545 8.976 75.8071 9.032 75.6485 9.144C75.4991 9.24667 75.4245 9.40533 75.4245 9.62C75.4245 9.79733 75.4898 9.94667 75.6205 10.068C75.7605 10.18 75.9471 10.236 76.1805 10.236C76.3951 10.236 76.5911 10.18 76.7685 10.068C76.9551 9.94667 77.0905 9.76 77.1745 9.508L77.5805 10.446C77.4591 11.0153 77.2025 11.44 76.8105 11.72C76.4185 12 75.8911 12.14 75.2285 12.14ZM85.2026 12.14C84.5399 12.14 83.9239 11.9813 83.3546 11.664C82.7946 11.3373 82.3466 10.88 82.0106 10.292C81.6746 9.69467 81.5066 8.98533 81.5066 8.164C81.5066 7.34267 81.6746 6.638 82.0106 6.05C82.3466 5.45267 82.7946 4.99533 83.3546 4.678C83.9239 4.36067 84.5399 4.202 85.2026 4.202C85.8746 4.202 86.4252 4.34667 86.8546 4.636C87.2839 4.916 87.6012 5.35 87.8066 5.938C88.0119 6.51667 88.1146 7.25867 88.1146 8.164C88.1146 9.07867 88.0166 9.83 87.8206 10.418C87.6339 11.006 87.3259 11.44 86.8966 11.72C86.4766 12 85.9119 12.14 85.2026 12.14ZM85.9586 9.676C86.1919 9.676 86.4019 9.62 86.5886 9.508C86.7752 9.396 86.9246 9.228 87.0366 9.004C87.1486 8.77067 87.2046 8.49067 87.2046 8.164C87.2046 7.828 87.1486 7.55267 87.0366 7.338C86.9246 7.114 86.7752 6.946 86.5886 6.834C86.4019 6.722 86.1919 6.666 85.9586 6.666C85.7252 6.666 85.5152 6.722 85.3286 6.834C85.1419 6.946 84.9926 7.114 84.8806 7.338C84.7686 7.55267 84.7126 7.828 84.7126 8.164C84.7126 8.49067 84.7686 8.77067 84.8806 9.004C84.9926 9.228 85.1419 9.396 85.3286 9.508C85.5152 9.62 85.7252 9.676 85.9586 9.676ZM87.3026 12V10.964L87.2886 8.164L87.1486 5.364V1.612H90.3126V12H87.3026ZM95.9417 12.14C95.0083 12.14 94.1917 11.9673 93.4917 11.622C92.801 11.2767 92.2643 10.8053 91.8817 10.208C91.499 9.60133 91.3077 8.92 91.3077 8.164C91.3077 7.38933 91.4943 6.70333 91.8677 6.106C92.2503 5.50867 92.7683 5.042 93.4217 4.706C94.0843 4.37 94.8263 4.202 95.6477 4.202C96.4037 4.202 97.099 4.35133 97.7337 4.65C98.3777 4.94867 98.891 5.392 99.2737 5.98C99.6657 6.568 99.8617 7.296 99.8617 8.164C99.8617 8.276 99.857 8.402 99.8477 8.542C99.8383 8.67267 99.829 8.794 99.8197 8.906H93.9257V7.38H98.1397L96.9497 7.786C96.9497 7.48733 96.8937 7.23533 96.7817 7.03C96.679 6.81533 96.5343 6.652 96.3477 6.54C96.161 6.41867 95.937 6.358 95.6757 6.358C95.4143 6.358 95.1857 6.41867 94.9897 6.54C94.803 6.652 94.6583 6.81533 94.5557 7.03C94.453 7.23533 94.4017 7.48733 94.4017 7.786V8.262C94.4017 8.58867 94.467 8.86867 94.5977 9.102C94.7283 9.33533 94.915 9.51267 95.1577 9.634C95.4003 9.746 95.6943 9.802 96.0397 9.802C96.3943 9.802 96.6837 9.75533 96.9077 9.662C97.141 9.56867 97.3837 9.42867 97.6357 9.242L99.2877 10.908C98.9143 11.3093 98.4523 11.6173 97.9017 11.832C97.3603 12.0373 96.707 12.14 95.9417 12.14ZM107.283 12V4.762H104.413V2.2H113.457V4.762H110.587V12H107.283ZM117.68 12.14C116.747 12.14 115.93 11.9673 115.23 11.622C114.539 11.2767 114.003 10.8053 113.62 10.208C113.237 9.60133 113.046 8.92 113.046 8.164C113.046 7.38933 113.233 6.70333 113.606 6.106C113.989 5.50867 114.507 5.042 115.16 4.706C115.823 4.37 116.565 4.202 117.386 4.202C118.142 4.202 118.837 4.35133 119.472 4.65C120.116 4.94867 120.629 5.392 121.012 5.98C121.404 6.568 121.6 7.296 121.6 8.164C121.6 8.276 121.595 8.402 121.586 8.542C121.577 8.67267 121.567 8.794 121.558 8.906H115.664V7.38H119.878L118.688 7.786C118.688 7.48733 118.632 7.23533 118.52 7.03C118.417 6.81533 118.273 6.652 118.086 6.54C117.899 6.41867 117.675 6.358 117.414 6.358C117.153 6.358 116.924 6.41867 116.728 6.54C116.541 6.652 116.397 6.81533 116.294 7.03C116.191 7.23533 116.14 7.48733 116.14 7.786V8.262C116.14 8.58867 116.205 8.86867 116.336 9.102C116.467 9.33533 116.653 9.51267 116.896 9.634C117.139 9.746 117.433 9.802 117.778 9.802C118.133 9.802 118.422 9.75533 118.646 9.662C118.879 9.56867 119.122 9.42867 119.374 9.242L121.026 10.908C120.653 11.3093 120.191 11.6173 119.64 11.832C119.099 12.0373 118.445 12.14 117.68 12.14ZM126.714 12.14C125.837 12.14 125.058 11.972 124.376 11.636C123.695 11.3 123.158 10.8333 122.766 10.236C122.384 9.62933 122.192 8.93867 122.192 8.164C122.192 7.38933 122.384 6.70333 122.766 6.106C123.158 5.50867 123.695 5.042 124.376 4.706C125.058 4.37 125.837 4.202 126.714 4.202C127.648 4.202 128.446 4.40267 129.108 4.804C129.771 5.20533 130.228 5.76067 130.48 6.47L128.03 7.674C127.872 7.31933 127.676 7.06267 127.442 6.904C127.218 6.74533 126.971 6.666 126.7 6.666C126.467 6.666 126.248 6.722 126.042 6.834C125.846 6.946 125.688 7.114 125.566 7.338C125.454 7.55267 125.398 7.828 125.398 8.164C125.398 8.5 125.454 8.78 125.566 9.004C125.688 9.228 125.846 9.396 126.042 9.508C126.248 9.62 126.467 9.676 126.7 9.676C126.971 9.676 127.218 9.59667 127.442 9.438C127.676 9.27933 127.872 9.02267 128.03 8.668L130.48 9.872C130.228 10.5813 129.771 11.1367 129.108 11.538C128.446 11.9393 127.648 12.14 126.714 12.14ZM136.532 4.202C137.12 4.202 137.652 4.32333 138.128 4.566C138.604 4.79933 138.977 5.168 139.248 5.672C139.528 6.176 139.668 6.82933 139.668 7.632V12H136.504V8.178C136.504 7.702 136.42 7.366 136.252 7.17C136.084 6.96467 135.855 6.862 135.566 6.862C135.351 6.862 135.15 6.91333 134.964 7.016C134.786 7.10933 134.642 7.268 134.53 7.492C134.427 7.716 134.376 8.01933 134.376 8.402V12H131.212V4.342H134.222V6.582L133.62 5.938C133.918 5.35933 134.32 4.92533 134.824 4.636C135.337 4.34667 135.906 4.202 136.532 4.202ZM145.225 12.14C144.357 12.14 143.587 11.972 142.915 11.636C142.252 11.2907 141.729 10.8193 141.347 10.222C140.964 9.62467 140.773 8.93867 140.773 8.164C140.773 7.38933 140.964 6.70333 141.347 6.106C141.729 5.50867 142.252 5.042 142.915 4.706C143.587 4.37 144.357 4.202 145.225 4.202C146.093 4.202 146.863 4.37 147.535 4.706C148.207 5.042 148.729 5.50867 149.103 6.106C149.485 6.70333 149.677 7.38933 149.677 8.164C149.677 8.93867 149.485 9.62467 149.103 10.222C148.729 10.8193 148.207 11.2907 147.535 11.636C146.863 11.972 146.093 12.14 145.225 12.14ZM145.225 9.676C145.458 9.676 145.668 9.62 145.855 9.508C146.041 9.396 146.191 9.228 146.303 9.004C146.415 8.77067 146.471 8.49067 146.471 8.164C146.471 7.828 146.415 7.55267 146.303 7.338C146.191 7.114 146.041 6.946 145.855 6.834C145.668 6.722 145.458 6.666 145.225 6.666C144.991 6.666 144.781 6.722 144.595 6.834C144.408 6.946 144.259 7.114 144.147 7.338C144.035 7.55267 143.979 7.828 143.979 8.164C143.979 8.49067 144.035 8.77067 144.147 9.004C144.259 9.228 144.408 9.396 144.595 9.508C144.781 9.62 144.991 9.676 145.225 9.676ZM150.667 12V1.612H153.831V12H150.667ZM159.279 12.14C158.411 12.14 157.641 11.972 156.969 11.636C156.307 11.2907 155.784 10.8193 155.401 10.222C155.019 9.62467 154.827 8.93867 154.827 8.164C154.827 7.38933 155.019 6.70333 155.401 6.106C155.784 5.50867 156.307 5.042 156.969 4.706C157.641 4.37 158.411 4.202 159.279 4.202C160.147 4.202 160.917 4.37 161.589 4.706C162.261 5.042 162.784 5.50867 163.157 6.106C163.54 6.70333 163.731 7.38933 163.731 8.164C163.731 8.93867 163.54 9.62467 163.157 10.222C162.784 10.8193 162.261 11.2907 161.589 11.636C160.917 11.972 160.147 12.14 159.279 12.14ZM159.279 9.676C159.513 9.676 159.723 9.62 159.909 9.508C160.096 9.396 160.245 9.228 160.357 9.004C160.469 8.77067 160.525 8.49067 160.525 8.164C160.525 7.828 160.469 7.55267 160.357 7.338C160.245 7.114 160.096 6.946 159.909 6.834C159.723 6.722 159.513 6.666 159.279 6.666C159.046 6.666 158.836 6.722 158.649 6.834C158.463 6.946 158.313 7.114 158.201 7.338C158.089 7.55267 158.033 7.828 158.033 8.164C158.033 8.49067 158.089 8.77067 158.201 9.004C158.313 9.228 158.463 9.396 158.649 9.508C158.836 9.62 159.046 9.676 159.279 9.676ZM157.767 3.502L159.615 1.262H162.625L159.867 3.502H157.767ZM168.613 14.856C167.857 14.856 167.148 14.7767 166.485 14.618C165.823 14.4593 165.253 14.2213 164.777 13.904L165.841 11.748C166.14 11.9813 166.518 12.1633 166.975 12.294C167.442 12.434 167.881 12.504 168.291 12.504C168.945 12.504 169.411 12.364 169.691 12.084C169.971 11.8133 170.111 11.4213 170.111 10.908V10.264L170.251 7.884L170.265 5.504V4.342H173.275V10.474C173.275 11.958 172.865 13.0593 172.043 13.778C171.222 14.4967 170.079 14.856 168.613 14.856ZM167.997 11.58C167.353 11.58 166.751 11.4307 166.191 11.132C165.631 10.824 165.179 10.3947 164.833 9.844C164.488 9.29333 164.315 8.64 164.315 7.884C164.315 7.128 164.488 6.47467 164.833 5.924C165.179 5.37333 165.631 4.94867 166.191 4.65C166.751 4.35133 167.353 4.202 167.997 4.202C168.66 4.202 169.201 4.33267 169.621 4.594C170.051 4.85533 170.368 5.26133 170.573 5.812C170.779 6.35333 170.881 7.044 170.881 7.884C170.881 8.724 170.779 9.41933 170.573 9.97C170.368 10.5113 170.051 10.9173 169.621 11.188C169.201 11.4493 168.66 11.58 167.997 11.58ZM168.837 9.116C169.089 9.116 169.313 9.06467 169.509 8.962C169.705 8.85933 169.859 8.71467 169.971 8.528C170.083 8.34133 170.139 8.12667 170.139 7.884C170.139 7.632 170.083 7.41733 169.971 7.24C169.859 7.05333 169.705 6.91333 169.509 6.82C169.313 6.71733 169.089 6.666 168.837 6.666C168.595 6.666 168.371 6.71733 168.165 6.82C167.969 6.91333 167.811 7.05333 167.689 7.24C167.577 7.41733 167.521 7.632 167.521 7.884C167.521 8.12667 167.577 8.34133 167.689 8.528C167.811 8.71467 167.969 8.85933 168.165 8.962C168.371 9.06467 168.595 9.116 168.837 9.116ZM174.675 12V4.342H177.839V12H174.675ZM176.257 3.726C175.678 3.726 175.216 3.572 174.871 3.264C174.525 2.956 174.353 2.57333 174.353 2.116C174.353 1.65867 174.525 1.276 174.871 0.967999C175.216 0.659999 175.678 0.505999 176.257 0.505999C176.835 0.505999 177.297 0.650666 177.643 0.94C177.988 1.22933 178.161 1.60267 178.161 2.06C178.161 2.54533 177.988 2.94667 177.643 3.264C177.297 3.572 176.835 3.726 176.257 3.726ZM183.357 12.14C182.48 12.14 181.7 11.972 181.019 11.636C180.338 11.3 179.801 10.8333 179.409 10.236C179.026 9.62933 178.835 8.93867 178.835 8.164C178.835 7.38933 179.026 6.70333 179.409 6.106C179.801 5.50867 180.338 5.042 181.019 4.706C181.7 4.37 182.48 4.202 183.357 4.202C184.29 4.202 185.088 4.40267 185.751 4.804C186.414 5.20533 186.871 5.76067 187.123 6.47L184.673 7.674C184.514 7.31933 184.318 7.06267 184.085 6.904C183.861 6.74533 183.614 6.666 183.343 6.666C183.11 6.666 182.89 6.722 182.685 6.834C182.489 6.946 182.33 7.114 182.209 7.338C182.097 7.55267 182.041 7.828 182.041 8.164C182.041 8.5 182.097 8.78 182.209 9.004C182.33 9.228 182.489 9.396 182.685 9.508C182.89 9.62 183.11 9.676 183.343 9.676C183.614 9.676 183.861 9.59667 184.085 9.438C184.318 9.27933 184.514 9.02267 184.673 8.668L187.123 9.872C186.871 10.5813 186.414 11.1367 185.751 11.538C185.088 11.9393 184.29 12.14 183.357 12.14ZM192.488 12V10.642L192.264 10.278V7.702C192.264 7.32867 192.148 7.044 191.914 6.848C191.69 6.652 191.322 6.554 190.808 6.554C190.463 6.554 190.113 6.61 189.758 6.722C189.404 6.82467 189.1 6.96933 188.848 7.156L187.84 5.07C188.288 4.79 188.825 4.57533 189.45 4.426C190.076 4.27667 190.687 4.202 191.284 4.202C192.6 4.202 193.618 4.496 194.336 5.084C195.064 5.672 195.428 6.60533 195.428 7.884V12H192.488ZM190.318 12.14C189.693 12.14 189.17 12.0327 188.75 11.818C188.33 11.6033 188.013 11.3187 187.798 10.964C187.584 10.6 187.476 10.1987 187.476 9.76C187.476 9.26533 187.602 8.84533 187.854 8.5C188.106 8.15467 188.489 7.89333 189.002 7.716C189.525 7.53867 190.183 7.45 190.976 7.45H192.572V8.976H191.48C191.144 8.976 190.897 9.032 190.738 9.144C190.589 9.24667 190.514 9.40533 190.514 9.62C190.514 9.79733 190.58 9.94667 190.71 10.068C190.85 10.18 191.037 10.236 191.27 10.236C191.485 10.236 191.681 10.18 191.858 10.068C192.045 9.94667 192.18 9.76 192.264 9.508L192.67 10.446C192.549 11.0153 192.292 11.44 191.9 11.72C191.508 12 190.981 12.14 190.318 12.14ZM204.171 6.372H208.483V8.864H204.171V6.372ZM204.395 12H201.091V2.2H209.057V4.692H204.395V12ZM214.094 12.14C213.161 12.14 212.344 11.9673 211.644 11.622C210.953 11.2767 210.417 10.8053 210.034 10.208C209.651 9.60133 209.46 8.92 209.46 8.164C209.46 7.38933 209.647 6.70333 210.02 6.106C210.403 5.50867 210.921 5.042 211.574 4.706C212.237 4.37 212.979 4.202 213.8 4.202C214.556 4.202 215.251 4.35133 215.886 4.65C216.53 4.94867 217.043 5.392 217.426 5.98C217.818 6.568 218.014 7.296 218.014 8.164C218.014 8.276 218.009 8.402 218 8.542C217.991 8.67267 217.981 8.794 217.972 8.906H212.078V7.38H216.292L215.102 7.786C215.102 7.48733 215.046 7.23533 214.934 7.03C214.831 6.81533 214.687 6.652 214.5 6.54C214.313 6.41867 214.089 6.358 213.828 6.358C213.567 6.358 213.338 6.41867 213.142 6.54C212.955 6.652 212.811 6.81533 212.708 7.03C212.605 7.23533 212.554 7.48733 212.554 7.786V8.262C212.554 8.58867 212.619 8.86867 212.75 9.102C212.881 9.33533 213.067 9.51267 213.31 9.634C213.553 9.746 213.847 9.802 214.192 9.802C214.547 9.802 214.836 9.75533 215.06 9.662C215.293 9.56867 215.536 9.42867 215.788 9.242L217.44 10.908C217.067 11.3093 216.605 11.6173 216.054 11.832C215.513 12.0373 214.859 12.14 214.094 12.14ZM222.373 12.14C221.71 12.14 221.094 11.9813 220.525 11.664C219.965 11.3373 219.517 10.88 219.181 10.292C218.845 9.69467 218.677 8.98533 218.677 8.164C218.677 7.34267 218.845 6.638 219.181 6.05C219.517 5.45267 219.965 4.99533 220.525 4.678C221.094 4.36067 221.71 4.202 222.373 4.202C223.045 4.202 223.595 4.34667 224.025 4.636C224.454 4.916 224.771 5.35 224.977 5.938C225.182 6.51667 225.285 7.25867 225.285 8.164C225.285 9.07867 225.187 9.83 224.991 10.418C224.804 11.006 224.496 11.44 224.067 11.72C223.647 12 223.082 12.14 222.373 12.14ZM223.129 9.676C223.362 9.676 223.572 9.62 223.759 9.508C223.945 9.396 224.095 9.228 224.207 9.004C224.319 8.77067 224.375 8.49067 224.375 8.164C224.375 7.828 224.319 7.55267 224.207 7.338C224.095 7.114 223.945 6.946 223.759 6.834C223.572 6.722 223.362 6.666 223.129 6.666C222.895 6.666 222.685 6.722 222.499 6.834C222.312 6.946 222.163 7.114 222.051 7.338C221.939 7.55267 221.883 7.828 221.883 8.164C221.883 8.49067 221.939 8.77067 222.051 9.004C222.163 9.228 222.312 9.396 222.499 9.508C222.685 9.62 222.895 9.676 223.129 9.676ZM224.473 12V10.964L224.459 8.164L224.319 5.364V1.612H227.483V12H224.473ZM233.112 12.14C232.178 12.14 231.362 11.9673 230.662 11.622C229.971 11.2767 229.434 10.8053 229.052 10.208C228.669 9.60133 228.478 8.92 228.478 8.164C228.478 7.38933 228.664 6.70333 229.038 6.106C229.42 5.50867 229.938 5.042 230.592 4.706C231.254 4.37 231.996 4.202 232.818 4.202C233.574 4.202 234.269 4.35133 234.904 4.65C235.548 4.94867 236.061 5.392 236.444 5.98C236.836 6.568 237.032 7.296 237.032 8.164C237.032 8.276 237.027 8.402 237.018 8.542C237.008 8.67267 236.999 8.794 236.99 8.906H231.096V7.38H235.31L234.12 7.786C234.12 7.48733 234.064 7.23533 233.952 7.03C233.849 6.81533 233.704 6.652 233.518 6.54C233.331 6.41867 233.107 6.358 232.846 6.358C232.584 6.358 232.356 6.41867 232.16 6.54C231.973 6.652 231.828 6.81533 231.726 7.03C231.623 7.23533 231.572 7.48733 231.572 7.786V8.262C231.572 8.58867 231.637 8.86867 231.768 9.102C231.898 9.33533 232.085 9.51267 232.328 9.634C232.57 9.746 232.864 9.802 233.21 9.802C233.564 9.802 233.854 9.75533 234.078 9.662C234.311 9.56867 234.554 9.42867 234.806 9.242L236.458 10.908C236.084 11.3093 235.622 11.6173 235.072 11.832C234.53 12.0373 233.877 12.14 233.112 12.14ZM238.03 12V4.342H241.04V6.652L240.55 5.994C240.783 5.39667 241.157 4.94867 241.67 4.65C242.183 4.35133 242.799 4.202 243.518 4.202V7.002C243.378 6.98333 243.252 6.96933 243.14 6.96C243.037 6.95067 242.93 6.946 242.818 6.946C242.342 6.946 241.95 7.072 241.642 7.324C241.343 7.56667 241.194 7.99133 241.194 8.598V12H238.03ZM248.625 12V10.642L248.401 10.278V7.702C248.401 7.32867 248.284 7.044 248.051 6.848C247.827 6.652 247.458 6.554 246.945 6.554C246.6 6.554 246.25 6.61 245.895 6.722C245.54 6.82467 245.237 6.96933 244.985 7.156L243.977 5.07C244.425 4.79 244.962 4.57533 245.587 4.426C246.212 4.27667 246.824 4.202 247.421 4.202C248.737 4.202 249.754 4.496 250.473 5.084C251.201 5.672 251.565 6.60533 251.565 7.884V12H248.625ZM246.455 12.14C245.83 12.14 245.307 12.0327 244.887 11.818C244.467 11.6033 244.15 11.3187 243.935 10.964C243.72 10.6 243.613 10.1987 243.613 9.76C243.613 9.26533 243.739 8.84533 243.991 8.5C244.243 8.15467 244.626 7.89333 245.139 7.716C245.662 7.53867 246.32 7.45 247.113 7.45H248.709V8.976H247.617C247.281 8.976 247.034 9.032 246.875 9.144C246.726 9.24667 246.651 9.40533 246.651 9.62C246.651 9.79733 246.716 9.94667 246.847 10.068C246.987 10.18 247.174 10.236 247.407 10.236C247.622 10.236 247.818 10.18 247.995 10.068C248.182 9.94667 248.317 9.76 248.401 9.508L248.807 10.446C248.686 11.0153 248.429 11.44 248.037 11.72C247.645 12 247.118 12.14 246.455 12.14ZM252.932 12V1.612H256.096V12H252.932ZM265.056 12.14C264.393 12.14 263.777 11.9813 263.208 11.664C262.648 11.3373 262.2 10.88 261.864 10.292C261.528 9.69467 261.36 8.98533 261.36 8.164C261.36 7.34267 261.528 6.638 261.864 6.05C262.2 5.45267 262.648 4.99533 263.208 4.678C263.777 4.36067 264.393 4.202 265.056 4.202C265.728 4.202 266.279 4.34667 266.708 4.636C267.137 4.916 267.455 5.35 267.66 5.938C267.865 6.51667 267.968 7.25867 267.968 8.164C267.968 9.07867 267.87 9.83 267.674 10.418C267.487 11.006 267.179 11.44 266.75 11.72C266.33 12 265.765 12.14 265.056 12.14ZM265.812 9.676C266.045 9.676 266.255 9.62 266.442 9.508C266.629 9.396 266.778 9.228 266.89 9.004C267.002 8.77067 267.058 8.49067 267.058 8.164C267.058 7.828 267.002 7.55267 266.89 7.338C266.778 7.114 266.629 6.946 266.442 6.834C266.255 6.722 266.045 6.666 265.812 6.666C265.579 6.666 265.369 6.722 265.182 6.834C264.995 6.946 264.846 7.114 264.734 7.338C264.622 7.55267 264.566 7.828 264.566 8.164C264.566 8.49067 264.622 8.77067 264.734 9.004C264.846 9.228 264.995 9.396 265.182 9.508C265.369 9.62 265.579 9.676 265.812 9.676ZM267.156 12V10.964L267.142 8.164L267.002 5.364V1.612H270.166V12H267.156ZM275.613 12.14C274.745 12.14 273.975 11.972 273.303 11.636C272.641 11.2907 272.118 10.8193 271.735 10.222C271.353 9.62467 271.161 8.93867 271.161 8.164C271.161 7.38933 271.353 6.70333 271.735 6.106C272.118 5.50867 272.641 5.042 273.303 4.706C273.975 4.37 274.745 4.202 275.613 4.202C276.481 4.202 277.251 4.37 277.923 4.706C278.595 5.042 279.118 5.50867 279.491 6.106C279.874 6.70333 280.065 7.38933 280.065 8.164C280.065 8.93867 279.874 9.62467 279.491 10.222C279.118 10.8193 278.595 11.2907 277.923 11.636C277.251 11.972 276.481 12.14 275.613 12.14ZM275.613 9.676C275.847 9.676 276.057 9.62 276.243 9.508C276.43 9.396 276.579 9.228 276.691 9.004C276.803 8.77067 276.859 8.49067 276.859 8.164C276.859 7.828 276.803 7.55267 276.691 7.338C276.579 7.114 276.43 6.946 276.243 6.834C276.057 6.722 275.847 6.666 275.613 6.666C275.38 6.666 275.17 6.722 274.983 6.834C274.797 6.946 274.647 7.114 274.535 7.338C274.423 7.55267 274.367 7.828 274.367 8.164C274.367 8.49067 274.423 8.77067 274.535 9.004C274.647 9.228 274.797 9.396 274.983 9.508C275.17 9.62 275.38 9.676 275.613 9.676ZM285.351 12V2.2H290.069C290.983 2.2 291.772 2.34933 292.435 2.648C293.107 2.94667 293.625 3.376 293.989 3.936C294.353 4.48667 294.535 5.14 294.535 5.896C294.535 6.652 294.353 7.30533 293.989 7.856C293.625 8.40667 293.107 8.836 292.435 9.144C291.772 9.44267 290.983 9.592 290.069 9.592H287.185L288.655 8.178V12H285.351ZM288.655 8.542L287.185 7.044H289.859C290.316 7.044 290.652 6.94133 290.867 6.736C291.091 6.53067 291.203 6.25067 291.203 5.896C291.203 5.54133 291.091 5.26133 290.867 5.056C290.652 4.85067 290.316 4.748 289.859 4.748H287.185L288.655 3.25V8.542ZM300.086 12V10.642L299.862 10.278V7.702C299.862 7.32867 299.745 7.044 299.512 6.848C299.288 6.652 298.919 6.554 298.406 6.554C298.061 6.554 297.711 6.61 297.356 6.722C297.001 6.82467 296.698 6.96933 296.446 7.156L295.438 5.07C295.886 4.79 296.423 4.57533 297.048 4.426C297.673 4.27667 298.285 4.202 298.882 4.202C300.198 4.202 301.215 4.496 301.934 5.084C302.662 5.672 303.026 6.60533 303.026 7.884V12H300.086ZM297.916 12.14C297.291 12.14 296.768 12.0327 296.348 11.818C295.928 11.6033 295.611 11.3187 295.396 10.964C295.181 10.6 295.074 10.1987 295.074 9.76C295.074 9.26533 295.2 8.84533 295.452 8.5C295.704 8.15467 296.087 7.89333 296.6 7.716C297.123 7.53867 297.781 7.45 298.574 7.45H300.17V8.976H299.078C298.742 8.976 298.495 9.032 298.336 9.144C298.187 9.24667 298.112 9.40533 298.112 9.62C298.112 9.79733 298.177 9.94667 298.308 10.068C298.448 10.18 298.635 10.236 298.868 10.236C299.083 10.236 299.279 10.18 299.456 10.068C299.643 9.94667 299.778 9.76 299.862 9.508L300.268 10.446C300.147 11.0153 299.89 11.44 299.498 11.72C299.106 12 298.579 12.14 297.916 12.14ZM304.393 12V4.342H307.403V6.652L306.913 5.994C307.147 5.39667 307.52 4.94867 308.033 4.65C308.547 4.35133 309.163 4.202 309.881 4.202V7.002C309.741 6.98333 309.615 6.96933 309.503 6.96C309.401 6.95067 309.293 6.946 309.181 6.946C308.705 6.946 308.313 7.072 308.005 7.324C307.707 7.56667 307.557 7.99133 307.557 8.598V12H304.393ZM314.988 12V10.642L314.764 10.278V7.702C314.764 7.32867 314.648 7.044 314.414 6.848C314.19 6.652 313.822 6.554 313.308 6.554C312.963 6.554 312.613 6.61 312.258 6.722C311.904 6.82467 311.6 6.96933 311.348 7.156L310.34 5.07C310.788 4.79 311.325 4.57533 311.95 4.426C312.576 4.27667 313.187 4.202 313.784 4.202C315.1 4.202 316.118 4.496 316.836 5.084C317.564 5.672 317.928 6.60533 317.928 7.884V12H314.988ZM312.818 12.14C312.193 12.14 311.67 12.0327 311.25 11.818C310.83 11.6033 310.513 11.3187 310.298 10.964C310.084 10.6 309.976 10.1987 309.976 9.76C309.976 9.26533 310.102 8.84533 310.354 8.5C310.606 8.15467 310.989 7.89333 311.502 7.716C312.025 7.53867 312.683 7.45 313.476 7.45H315.072V8.976H313.98C313.644 8.976 313.397 9.032 313.238 9.144C313.089 9.24667 313.014 9.40533 313.014 9.62C313.014 9.79733 313.08 9.94667 313.21 10.068C313.35 10.18 313.537 10.236 313.77 10.236C313.985 10.236 314.181 10.18 314.358 10.068C314.545 9.94667 314.68 9.76 314.764 9.508L315.17 10.446C315.049 11.0153 314.792 11.44 314.4 11.72C314.008 12 313.481 12.14 312.818 12.14ZM324.616 4.202C325.204 4.202 325.736 4.32333 326.212 4.566C326.688 4.79933 327.061 5.168 327.332 5.672C327.612 6.176 327.752 6.82933 327.752 7.632V12H324.588V8.178C324.588 7.702 324.504 7.366 324.336 7.17C324.168 6.96467 323.939 6.862 323.65 6.862C323.435 6.862 323.234 6.91333 323.048 7.016C322.87 7.10933 322.726 7.268 322.614 7.492C322.511 7.716 322.46 8.01933 322.46 8.402V12H319.296V4.342H322.306V6.582L321.704 5.938C322.002 5.35933 322.404 4.92533 322.908 4.636C323.421 4.34667 323.99 4.202 324.616 4.202ZM333.76 12V10.642L333.536 10.278V7.702C333.536 7.32867 333.419 7.044 333.186 6.848C332.962 6.652 332.593 6.554 332.08 6.554C331.734 6.554 331.384 6.61 331.03 6.722C330.675 6.82467 330.372 6.96933 330.12 7.156L329.112 5.07C329.56 4.79 330.096 4.57533 330.722 4.426C331.347 4.27667 331.958 4.202 332.556 4.202C333.872 4.202 334.889 4.496 335.608 5.084C336.336 5.672 336.7 6.60533 336.7 7.884V12H333.76ZM331.59 12.14C330.964 12.14 330.442 12.0327 330.022 11.818C329.602 11.6033 329.284 11.3187 329.07 10.964C328.855 10.6 328.748 10.1987 328.748 9.76C328.748 9.26533 328.874 8.84533 329.126 8.5C329.378 8.15467 329.76 7.89333 330.274 7.716C330.796 7.53867 331.454 7.45 332.248 7.45H333.844V8.976H332.752C332.416 8.976 332.168 9.032 332.01 9.144C331.86 9.24667 331.786 9.40533 331.786 9.62C331.786 9.79733 331.851 9.94667 331.982 10.068C332.122 10.18 332.308 10.236 332.542 10.236C332.756 10.236 332.952 10.18 333.13 10.068C333.316 9.94667 333.452 9.76 333.536 9.508L333.942 10.446C333.82 11.0153 333.564 11.44 333.172 11.72C332.78 12 332.252 12.14 331.59 12.14ZM331.45 3.502L333.298 1.262H336.308L333.55 3.502H331.45Z" fill="black"/>
<path d="M5.434 32.078C4.74933 32.078 4.11667 31.9653 3.536 31.74C2.95533 31.506 2.45267 31.181 2.028 30.765C1.60333 30.349 1.26967 29.8593 1.027 29.296C0.793 28.7327 0.676 28.1173 0.676 27.45C0.676 26.7827 0.793 26.1673 1.027 25.604C1.26967 25.0407 1.60333 24.551 2.028 24.135C2.46133 23.719 2.96833 23.3983 3.549 23.173C4.12967 22.939 4.76233 22.822 5.447 22.822C6.10567 22.822 6.72533 22.9347 7.306 23.16C7.88667 23.3767 8.37633 23.706 8.775 24.148L8.164 24.759C7.79133 24.3777 7.37967 24.1047 6.929 23.94C6.47833 23.7667 5.993 23.68 5.473 23.68C4.927 23.68 4.42 23.7753 3.952 23.966C3.484 24.148 3.07667 24.4123 2.73 24.759C2.38333 25.097 2.11033 25.4957 1.911 25.955C1.72033 26.4057 1.625 26.904 1.625 27.45C1.625 27.996 1.72033 28.4987 1.911 28.958C2.11033 29.4087 2.38333 29.8073 2.73 30.154C3.07667 30.492 3.484 30.7563 3.952 30.947C4.42 31.129 4.927 31.22 5.473 31.22C5.993 31.22 6.47833 31.1333 6.929 30.96C7.37967 30.7867 7.79133 30.5093 8.164 30.128L8.775 30.739C8.37633 31.181 7.88667 31.5147 7.306 31.74C6.72533 31.9653 6.10133 32.078 5.434 32.078ZM14.8062 32V30.492L14.7672 30.245V27.723C14.7672 27.1423 14.6025 26.696 14.2732 26.384C13.9525 26.072 13.4715 25.916 12.8302 25.916C12.3882 25.916 11.9679 25.9897 11.5692 26.137C11.1705 26.2843 10.8325 26.4793 10.5552 26.722L10.1392 26.033C10.4859 25.7383 10.9019 25.513 11.3872 25.357C11.8725 25.1923 12.3839 25.11 12.9212 25.11C13.8052 25.11 14.4855 25.331 14.9622 25.773C15.4475 26.2063 15.6902 26.8693 15.6902 27.762V32H14.8062ZM12.4532 32.065C11.9419 32.065 11.4955 31.9827 11.1142 31.818C10.7415 31.6447 10.4555 31.4107 10.2562 31.116C10.0569 30.8127 9.95719 30.466 9.95719 30.076C9.95719 29.7207 10.0395 29.4 10.2042 29.114C10.3775 28.8193 10.6549 28.5853 11.0362 28.412C11.4262 28.23 11.9462 28.139 12.5962 28.139H14.9492V28.828H12.6222C11.9635 28.828 11.5042 28.945 11.2442 29.179C10.9929 29.413 10.8672 29.7033 10.8672 30.05C10.8672 30.44 11.0189 30.752 11.3222 30.986C11.6255 31.22 12.0502 31.337 12.5962 31.337C13.1162 31.337 13.5625 31.22 13.9352 30.986C14.3165 30.7433 14.5939 30.3967 14.7672 29.946L14.9752 30.583C14.8019 31.0337 14.4985 31.3933 14.0652 31.662C13.6405 31.9307 13.1032 32.065 12.4532 32.065ZM26.7252 25.11C27.2798 25.11 27.7608 25.2183 28.1682 25.435C28.5842 25.643 28.9048 25.9637 29.1302 26.397C29.3642 26.8303 29.4812 27.3763 29.4812 28.035V32H28.5582V28.126C28.5582 27.4067 28.3848 26.865 28.0382 26.501C27.7002 26.1283 27.2192 25.942 26.5952 25.942C26.1272 25.942 25.7198 26.0417 25.3732 26.241C25.0352 26.4317 24.7708 26.7133 24.5802 27.086C24.3982 27.45 24.3072 27.892 24.3072 28.412V32H23.3842V28.126C23.3842 27.4067 23.2108 26.865 22.8642 26.501C22.5175 26.1283 22.0322 25.942 21.4082 25.942C20.9488 25.942 20.5458 26.0417 20.1992 26.241C19.8525 26.4317 19.5838 26.7133 19.3932 27.086C19.2112 27.45 19.1202 27.892 19.1202 28.412V32H18.1972V25.175H19.0812V27.021L18.9382 26.696C19.1462 26.202 19.4798 25.8163 19.9392 25.539C20.4072 25.253 20.9575 25.11 21.5902 25.11C22.2575 25.11 22.8252 25.279 23.2932 25.617C23.7612 25.9463 24.0645 26.4447 24.2032 27.112L23.8392 26.969C24.0385 26.4143 24.3895 25.968 24.8922 25.63C25.4035 25.2833 26.0145 25.11 26.7252 25.11ZM35.5073 32.065C34.9179 32.065 34.3849 31.9307 33.9083 31.662C33.4316 31.3847 33.0503 30.9903 32.7643 30.479C32.4869 29.959 32.3483 29.3263 32.3483 28.581C32.3483 27.8357 32.4869 27.2073 32.7643 26.696C33.0416 26.176 33.4186 25.7817 33.8953 25.513C34.3719 25.2443 34.9093 25.11 35.5073 25.11C36.1573 25.11 36.7379 25.2573 37.2493 25.552C37.7693 25.838 38.1766 26.2453 38.4713 26.774C38.7659 27.294 38.9133 27.8963 38.9133 28.581C38.9133 29.2743 38.7659 29.881 38.4713 30.401C38.1766 30.921 37.7693 31.3283 37.2493 31.623C36.7379 31.9177 36.1573 32.065 35.5073 32.065ZM31.9843 34.522V25.175H32.8683V27.229L32.7773 28.594L32.9073 29.972V34.522H31.9843ZM35.4423 31.246C35.9276 31.246 36.3609 31.1377 36.7423 30.921C37.1236 30.6957 37.4269 30.3837 37.6523 29.985C37.8776 29.5777 37.9903 29.1097 37.9903 28.581C37.9903 28.0523 37.8776 27.5887 37.6523 27.19C37.4269 26.7913 37.1236 26.4793 36.7423 26.254C36.3609 26.0287 35.9276 25.916 35.4423 25.916C34.9569 25.916 34.5193 26.0287 34.1293 26.254C33.7479 26.4793 33.4446 26.7913 33.2193 27.19C33.0026 27.5887 32.8943 28.0523 32.8943 28.581C32.8943 29.1097 33.0026 29.5777 33.2193 29.985C33.4446 30.3837 33.7479 30.6957 34.1293 30.921C34.5193 31.1377 34.9569 31.246 35.4423 31.246ZM43.6158 32.065C43.0351 32.065 42.5281 31.9567 42.0948 31.74C41.6615 31.5233 41.3235 31.1983 41.0808 30.765C40.8468 30.3317 40.7298 29.79 40.7298 29.14V25.175H41.6528V29.036C41.6528 29.764 41.8305 30.3143 42.1858 30.687C42.5498 31.051 43.0568 31.233 43.7068 31.233C44.1835 31.233 44.5951 31.1377 44.9418 30.947C45.2971 30.7477 45.5658 30.4617 45.7478 30.089C45.9385 29.7163 46.0338 29.27 46.0338 28.75V25.175H46.9568V32H46.0728V30.128L46.2158 30.466C45.9991 30.9687 45.6611 31.363 45.2018 31.649C44.7511 31.9263 44.2225 32.065 43.6158 32.065ZM51.3622 32.065C50.7989 32.065 50.2659 31.987 49.7632 31.831C49.2605 31.6663 48.8662 31.4627 48.5802 31.22L48.9962 30.492C49.2735 30.7 49.6289 30.882 50.0622 31.038C50.4955 31.1853 50.9505 31.259 51.4272 31.259C52.0772 31.259 52.5452 31.1593 52.8312 30.96C53.1172 30.752 53.2602 30.479 53.2602 30.141C53.2602 29.8897 53.1779 29.6947 53.0132 29.556C52.8572 29.4087 52.6492 29.3003 52.3892 29.231C52.1292 29.153 51.8389 29.088 51.5182 29.036C51.1975 28.984 50.8769 28.9233 50.5562 28.854C50.2442 28.7847 49.9582 28.685 49.6982 28.555C49.4382 28.4163 49.2259 28.23 49.0612 27.996C48.9052 27.762 48.8272 27.45 48.8272 27.06C48.8272 26.6873 48.9312 26.3537 49.1392 26.059C49.3472 25.7643 49.6505 25.5347 50.0492 25.37C50.4565 25.1967 50.9505 25.11 51.5312 25.11C51.9732 25.11 52.4152 25.1707 52.8572 25.292C53.2992 25.4047 53.6632 25.5563 53.9492 25.747L53.5462 26.488C53.2429 26.28 52.9179 26.1327 52.5712 26.046C52.2245 25.9507 51.8779 25.903 51.5312 25.903C50.9159 25.903 50.4609 26.0113 50.1662 26.228C49.8802 26.436 49.7372 26.7047 49.7372 27.034C49.7372 27.294 49.8152 27.4977 49.9712 27.645C50.1359 27.7923 50.3482 27.9093 50.6082 27.996C50.8769 28.074 51.1672 28.139 51.4792 28.191C51.7999 28.243 52.1162 28.308 52.4282 28.386C52.7489 28.4553 53.0392 28.555 53.2992 28.685C53.5679 28.8063 53.7802 28.984 53.9362 29.218C54.1009 29.4433 54.1832 29.7423 54.1832 30.115C54.1832 30.5137 54.0705 30.8603 53.8452 31.155C53.6285 31.441 53.3079 31.6663 52.8832 31.831C52.4672 31.987 51.9602 32.065 51.3622 32.065ZM63.4262 32.078C62.7415 32.078 62.1089 31.9653 61.5282 31.74C60.9475 31.506 60.4449 31.181 60.0202 30.765C59.5955 30.349 59.2619 29.8593 59.0192 29.296C58.7852 28.7327 58.6682 28.1173 58.6682 27.45C58.6682 26.7827 58.7852 26.1673 59.0192 25.604C59.2619 25.0407 59.5955 24.551 60.0202 24.135C60.4535 23.719 60.9605 23.3983 61.5412 23.173C62.1219 22.939 62.7545 22.822 63.4392 22.822C64.0979 22.822 64.7175 22.9347 65.2982 23.16C65.8789 23.3767 66.3685 23.706 66.7672 24.148L66.1562 24.759C65.7835 24.3777 65.3719 24.1047 64.9212 23.94C64.4705 23.7667 63.9852 23.68 63.4652 23.68C62.9192 23.68 62.4122 23.7753 61.9442 23.966C61.4762 24.148 61.0689 24.4123 60.7222 24.759C60.3755 25.097 60.1025 25.4957 59.9032 25.955C59.7125 26.4057 59.6172 26.904 59.6172 27.45C59.6172 27.996 59.7125 28.4987 59.9032 28.958C60.1025 29.4087 60.3755 29.8073 60.7222 30.154C61.0689 30.492 61.4762 30.7563 61.9442 30.947C62.4122 31.129 62.9192 31.22 63.4652 31.22C63.9852 31.22 64.4705 31.1333 64.9212 30.96C65.3719 30.7867 65.7835 30.5093 66.1562 30.128L66.7672 30.739C66.3685 31.181 65.8789 31.5147 65.2982 31.74C64.7175 31.9653 64.0935 32.078 63.4262 32.078ZM72.7984 32V30.492L72.7594 30.245V27.723C72.7594 27.1423 72.5947 26.696 72.2654 26.384C71.9447 26.072 71.4637 25.916 70.8224 25.916C70.3804 25.916 69.96 25.9897 69.5614 26.137C69.1627 26.2843 68.8247 26.4793 68.5474 26.722L68.1314 26.033C68.478 25.7383 68.894 25.513 69.3794 25.357C69.8647 25.1923 70.376 25.11 70.9134 25.11C71.7974 25.11 72.4777 25.331 72.9544 25.773C73.4397 26.2063 73.6824 26.8693 73.6824 27.762V32H72.7984ZM70.4454 32.065C69.934 32.065 69.4877 31.9827 69.1064 31.818C68.7337 31.6447 68.4477 31.4107 68.2484 31.116C68.049 30.8127 67.9494 30.466 67.9494 30.076C67.9494 29.7207 68.0317 29.4 68.1964 29.114C68.3697 28.8193 68.647 28.5853 69.0284 28.412C69.4184 28.23 69.9384 28.139 70.5884 28.139H72.9414V28.828H70.6144C69.9557 28.828 69.4964 28.945 69.2364 29.179C68.985 29.413 68.8594 29.7033 68.8594 30.05C68.8594 30.44 69.011 30.752 69.3144 30.986C69.6177 31.22 70.0424 31.337 70.5884 31.337C71.1084 31.337 71.5547 31.22 71.9274 30.986C72.3087 30.7433 72.586 30.3967 72.7594 29.946L72.9674 30.583C72.794 31.0337 72.4907 31.3933 72.0574 31.662C71.6327 31.9307 71.0954 32.065 70.4454 32.065ZM84.7173 25.11C85.272 25.11 85.753 25.2183 86.1603 25.435C86.5763 25.643 86.897 25.9637 87.1223 26.397C87.3563 26.8303 87.4733 27.3763 87.4733 28.035V32H86.5503V28.126C86.5503 27.4067 86.377 26.865 86.0303 26.501C85.6923 26.1283 85.2113 25.942 84.5873 25.942C84.1193 25.942 83.712 26.0417 83.3653 26.241C83.0273 26.4317 82.763 26.7133 82.5723 27.086C82.3903 27.45 82.2993 27.892 82.2993 28.412V32H81.3763V28.126C81.3763 27.4067 81.203 26.865 80.8563 26.501C80.5097 26.1283 80.0243 25.942 79.4003 25.942C78.941 25.942 78.538 26.0417 78.1913 26.241C77.8447 26.4317 77.576 26.7133 77.3853 27.086C77.2033 27.45 77.1123 27.892 77.1123 28.412V32H76.1893V25.175H77.0733V27.021L76.9303 26.696C77.1383 26.202 77.472 25.8163 77.9313 25.539C78.3993 25.253 78.9497 25.11 79.5823 25.11C80.2497 25.11 80.8173 25.279 81.2853 25.617C81.7533 25.9463 82.0567 26.4447 82.1953 27.112L81.8313 26.969C82.0307 26.4143 82.3817 25.968 82.8843 25.63C83.3957 25.2833 84.0067 25.11 84.7173 25.11ZM93.4995 32.065C92.9101 32.065 92.3771 31.9307 91.9005 31.662C91.4238 31.3847 91.0425 30.9903 90.7565 30.479C90.4791 29.959 90.3405 29.3263 90.3405 28.581C90.3405 27.8357 90.4791 27.2073 90.7565 26.696C91.0338 26.176 91.4108 25.7817 91.8875 25.513C92.3641 25.2443 92.9015 25.11 93.4995 25.11C94.1495 25.11 94.7301 25.2573 95.2415 25.552C95.7615 25.838 96.1688 26.2453 96.4635 26.774C96.7581 27.294 96.9055 27.8963 96.9055 28.581C96.9055 29.2743 96.7581 29.881 96.4635 30.401C96.1688 30.921 95.7615 31.3283 95.2415 31.623C94.7301 31.9177 94.1495 32.065 93.4995 32.065ZM89.9765 34.522V25.175H90.8605V27.229L90.7695 28.594L90.8995 29.972V34.522H89.9765ZM93.4345 31.246C93.9198 31.246 94.3531 31.1377 94.7345 30.921C95.1158 30.6957 95.4191 30.3837 95.6445 29.985C95.8698 29.5777 95.9825 29.1097 95.9825 28.581C95.9825 28.0523 95.8698 27.5887 95.6445 27.19C95.4191 26.7913 95.1158 26.4793 94.7345 26.254C94.3531 26.0287 93.9198 25.916 93.4345 25.916C92.9491 25.916 92.5115 26.0287 92.1215 26.254C91.7401 26.4793 91.4368 26.7913 91.2115 27.19C90.9948 27.5887 90.8865 28.0523 90.8865 28.581C90.8865 29.1097 90.9948 29.5777 91.2115 29.985C91.4368 30.3837 91.7401 30.6957 92.1215 30.921C92.5115 31.1377 92.9491 31.246 93.4345 31.246ZM101.569 32.065C100.91 32.065 100.317 31.9177 99.788 31.623C99.268 31.3197 98.8563 30.908 98.553 30.388C98.2497 29.8593 98.098 29.257 98.098 28.581C98.098 27.8963 98.2497 27.294 98.553 26.774C98.8563 26.254 99.268 25.8467 99.788 25.552C100.308 25.2573 100.902 25.11 101.569 25.11C102.245 25.11 102.843 25.2573 103.363 25.552C103.892 25.8467 104.303 26.254 104.598 26.774C104.901 27.294 105.053 27.8963 105.053 28.581C105.053 29.257 104.901 29.8593 104.598 30.388C104.303 30.908 103.892 31.3197 103.363 31.623C102.834 31.9177 102.236 32.065 101.569 32.065ZM101.569 31.246C102.063 31.246 102.501 31.1377 102.882 30.921C103.263 30.6957 103.562 30.3837 103.779 29.985C104.004 29.5777 104.117 29.1097 104.117 28.581C104.117 28.0437 104.004 27.5757 103.779 27.177C103.562 26.7783 103.263 26.4707 102.882 26.254C102.501 26.0287 102.067 25.916 101.582 25.916C101.097 25.916 100.663 26.0287 100.282 26.254C99.9007 26.4707 99.5973 26.7783 99.372 27.177C99.1467 27.5757 99.034 28.0437 99.034 28.581C99.034 29.1097 99.1467 29.5777 99.372 29.985C99.5973 30.3837 99.9007 30.6957 100.282 30.921C100.663 31.1377 101.092 31.246 101.569 31.246ZM110.535 32V22.9H111.328L115.488 29.998H115.072L119.193 22.9H119.986V32H119.063V24.343H119.284L115.488 30.843H115.033L111.211 24.343H111.458V32H110.535ZM125.538 32.065C124.879 32.065 124.285 31.9177 123.757 31.623C123.237 31.3197 122.825 30.908 122.522 30.388C122.218 29.8593 122.067 29.257 122.067 28.581C122.067 27.8963 122.218 27.294 122.522 26.774C122.825 26.254 123.237 25.8467 123.757 25.552C124.277 25.2573 124.87 25.11 125.538 25.11C126.214 25.11 126.812 25.2573 127.332 25.552C127.86 25.8467 128.272 26.254 128.567 26.774C128.87 27.294 129.022 27.8963 129.022 28.581C129.022 29.257 128.87 29.8593 128.567 30.388C128.272 30.908 127.86 31.3197 127.332 31.623C126.803 31.9177 126.205 32.065 125.538 32.065ZM125.538 31.246C126.032 31.246 126.469 31.1377 126.851 30.921C127.232 30.6957 127.531 30.3837 127.748 29.985C127.973 29.5777 128.086 29.1097 128.086 28.581C128.086 28.0437 127.973 27.5757 127.748 27.177C127.531 26.7783 127.232 26.4707 126.851 26.254C126.469 26.0287 126.036 25.916 125.551 25.916C125.065 25.916 124.632 26.0287 124.251 26.254C123.869 26.4707 123.566 26.7783 123.341 27.177C123.115 27.5757 123.003 28.0437 123.003 28.581C123.003 29.1097 123.115 29.5777 123.341 29.985C123.566 30.3837 123.869 30.6957 124.251 30.921C124.632 31.1377 125.061 31.246 125.538 31.246ZM133.727 32.065C133.146 32.065 132.639 31.9567 132.206 31.74C131.773 31.5233 131.435 31.1983 131.192 30.765C130.958 30.3317 130.841 29.79 130.841 29.14V25.175H131.764V29.036C131.764 29.764 131.942 30.3143 132.297 30.687C132.661 31.051 133.168 31.233 133.818 31.233C134.295 31.233 134.706 31.1377 135.053 30.947C135.408 30.7477 135.677 30.4617 135.859 30.089C136.05 29.7163 136.145 29.27 136.145 28.75V25.175H137.068V32H136.184V30.128L136.327 30.466C136.11 30.9687 135.772 31.363 135.313 31.649C134.862 31.9263 134.334 32.065 133.727 32.065ZM139.641 32V25.175H140.525V27.034L140.434 26.709C140.624 26.189 140.945 25.7947 141.396 25.526C141.846 25.2487 142.405 25.11 143.073 25.11V26.007C143.038 26.007 143.003 26.007 142.969 26.007C142.934 25.9983 142.899 25.994 142.865 25.994C142.145 25.994 141.582 26.215 141.175 26.657C140.767 27.0903 140.564 27.71 140.564 28.516V32H139.641ZM148.526 32V30.492L148.487 30.245V27.723C148.487 27.1423 148.322 26.696 147.993 26.384C147.672 26.072 147.191 25.916 146.55 25.916C146.108 25.916 145.688 25.9897 145.289 26.137C144.89 26.2843 144.552 26.4793 144.275 26.722L143.859 26.033C144.206 25.7383 144.622 25.513 145.107 25.357C145.592 25.1923 146.104 25.11 146.641 25.11C147.525 25.11 148.205 25.331 148.682 25.773C149.167 26.2063 149.41 26.8693 149.41 27.762V32H148.526ZM146.173 32.065C145.662 32.065 145.215 31.9827 144.834 31.818C144.461 31.6447 144.175 31.4107 143.976 31.116C143.777 30.8127 143.677 30.466 143.677 30.076C143.677 29.7207 143.759 29.4 143.924 29.114C144.097 28.8193 144.375 28.5853 144.756 28.412C145.146 28.23 145.666 28.139 146.316 28.139H148.669V28.828H146.342C145.683 28.828 145.224 28.945 144.964 29.179C144.713 29.413 144.587 29.7033 144.587 30.05C144.587 30.44 144.739 30.752 145.042 30.986C145.345 31.22 145.77 31.337 146.316 31.337C146.836 31.337 147.282 31.22 147.655 30.986C148.036 30.7433 148.314 30.3967 148.487 29.946L148.695 30.583C148.522 31.0337 148.218 31.3933 147.785 31.662C147.36 31.9307 146.823 32.065 146.173 32.065ZM147.551 24.031C147.352 24.031 147.174 23.9877 147.018 23.901C146.862 23.8143 146.719 23.7147 146.589 23.602C146.468 23.4807 146.346 23.3767 146.225 23.29C146.104 23.1947 145.978 23.147 145.848 23.147C145.649 23.147 145.488 23.2207 145.367 23.368C145.254 23.5153 145.189 23.719 145.172 23.979H144.613C144.63 23.5457 144.743 23.199 144.951 22.939C145.168 22.679 145.445 22.549 145.783 22.549C145.982 22.549 146.16 22.5967 146.316 22.692C146.481 22.7787 146.624 22.8827 146.745 23.004C146.875 23.1167 146.996 23.2163 147.109 23.303C147.23 23.3897 147.356 23.433 147.486 23.433C147.685 23.433 147.846 23.3637 147.967 23.225C148.088 23.0777 148.153 22.8783 148.162 22.627H148.721C148.712 23.043 148.6 23.381 148.383 23.641C148.166 23.901 147.889 24.031 147.551 24.031ZM154.699 32.065C154.04 32.065 153.447 31.9177 152.918 31.623C152.398 31.3197 151.986 30.908 151.683 30.388C151.38 29.8593 151.228 29.257 151.228 28.581C151.228 27.8963 151.38 27.294 151.683 26.774C151.986 26.254 152.398 25.8467 152.918 25.552C153.438 25.2573 154.032 25.11 154.699 25.11C155.375 25.11 155.973 25.2573 156.493 25.552C157.022 25.8467 157.433 26.254 157.728 26.774C158.031 27.294 158.183 27.8963 158.183 28.581C158.183 29.257 158.031 29.8593 157.728 30.388C157.433 30.908 157.022 31.3197 156.493 31.623C155.964 31.9177 155.366 32.065 154.699 32.065ZM154.699 31.246C155.193 31.246 155.631 31.1377 156.012 30.921C156.393 30.6957 156.692 30.3837 156.909 29.985C157.134 29.5777 157.247 29.1097 157.247 28.581C157.247 28.0437 157.134 27.5757 156.909 27.177C156.692 26.7783 156.393 26.4707 156.012 26.254C155.631 26.0287 155.197 25.916 154.712 25.916C154.227 25.916 153.793 26.0287 153.412 26.254C153.031 26.4707 152.727 26.7783 152.502 27.177C152.277 27.5757 152.164 28.0437 152.164 28.581C152.164 29.1097 152.277 29.5777 152.502 29.985C152.727 30.3837 153.031 30.6957 153.412 30.921C153.793 31.1377 154.222 31.246 154.699 31.246Z" fill="black"/>
<line y1="19.5" x2="337" y2="19.5" stroke="black" stroke-opacity="0.31"/>
</svg>
